<svg width="20" height="20" viewBox="0 0 20 20" fill="none" xmlns="http://www.w3.org/2000/svg">
<path d="M6.81118 6.11106C6.81118 4.34905 8.23806 2.92217 10.0001 2.92217C11.7621 2.92217 13.189 4.34904 13.189 6.11106C13.189 7.87307 11.7621 9.29995 10.0001 9.29995C8.23806 9.29995 6.81118 7.87307 6.81118 6.11106ZM2.92229 14.8611C2.92229 14.4716 3.11181 14.0787 3.54729 13.6768C3.98752 13.2705 4.63079 12.904 5.39805 12.5966C6.9337 11.9814 8.78966 11.6722 10.0001 11.6722C11.2105 11.6722 13.0664 11.9814 14.6021 12.5966C15.3693 12.904 16.0126 13.2705 16.4528 13.6768C16.8883 14.0787 17.0778 14.4716 17.0778 14.8611V17.0777H2.92229V14.8611Z" stroke="#C2CFE0" stroke-width="1.4"/>
</svg>
