<svg width="174" height="17" viewBox="0 0 174 17" fill="none" xmlns="http://www.w3.org/2000/svg">
<path d="M33.764 4.355V5.378H31.729V12H30.475V5.378H28.429V4.355H33.764ZM37.773 12.099C37.201 12.099 36.684 11.9707 36.222 11.714C35.76 11.45 35.397 11.0833 35.133 10.614C34.869 10.1373 34.737 9.58733 34.737 8.964C34.737 8.348 34.8727 7.80167 35.144 7.325C35.4153 6.84833 35.7857 6.48167 36.255 6.225C36.7243 5.96833 37.2487 5.84 37.828 5.84C38.4073 5.84 38.9317 5.96833 39.401 6.225C39.8703 6.48167 40.2407 6.84833 40.512 7.325C40.7833 7.80167 40.919 8.348 40.919 8.964C40.919 9.58 40.7797 10.1263 40.501 10.603C40.2223 11.0797 39.841 11.45 39.357 11.714C38.8803 11.9707 38.3523 12.099 37.773 12.099ZM37.773 11.01C38.0957 11.01 38.3963 10.933 38.675 10.779C38.961 10.625 39.192 10.394 39.368 10.086C39.544 9.778 39.632 9.404 39.632 8.964C39.632 8.524 39.5477 8.15367 39.379 7.853C39.2103 7.545 38.9867 7.314 38.708 7.16C38.4293 7.006 38.1287 6.929 37.806 6.929C37.4833 6.929 37.1827 7.006 36.904 7.16C36.6327 7.314 36.4163 7.545 36.255 7.853C36.0937 8.15367 36.013 8.524 36.013 8.964C36.013 9.61667 36.178 10.1227 36.508 10.482C36.8453 10.834 37.267 11.01 37.773 11.01ZM44.7106 5.84C45.18 5.84 45.5943 5.93533 45.9536 6.126C46.3203 6.30933 46.6063 6.54033 46.8116 6.819V5.939H48.0766V12.099C48.0766 12.6563 47.9593 13.1513 47.7246 13.584C47.49 14.024 47.149 14.3687 46.7016 14.618C46.2616 14.8673 45.7336 14.992 45.1176 14.992C44.2963 14.992 43.6143 14.7977 43.0716 14.409C42.529 14.0277 42.221 13.507 42.1476 12.847H43.3906C43.486 13.1623 43.6876 13.4153 43.9956 13.606C44.311 13.804 44.685 13.903 45.1176 13.903C45.6236 13.903 46.0306 13.749 46.3386 13.441C46.654 13.133 46.8116 12.6857 46.8116 12.099V11.087C46.599 11.373 46.3093 11.615 45.9426 11.813C45.5833 12.0037 45.1726 12.099 44.7106 12.099C44.1826 12.099 43.6986 11.967 43.2586 11.703C42.826 11.4317 42.4813 11.0577 42.2246 10.581C41.9753 10.097 41.8506 9.55067 41.8506 8.942C41.8506 8.33333 41.9753 7.79433 42.2246 7.325C42.4813 6.85567 42.826 6.49267 43.2586 6.236C43.6986 5.972 44.1826 5.84 44.7106 5.84ZM46.8116 8.964C46.8116 8.546 46.7236 8.183 46.5476 7.875C46.379 7.567 46.1553 7.33233 45.8766 7.171C45.598 7.00967 45.2973 6.929 44.9746 6.929C44.652 6.929 44.3513 7.00967 44.0726 7.171C43.794 7.325 43.5666 7.556 43.3906 7.864C43.222 8.16467 43.1376 8.524 43.1376 8.942C43.1376 9.36 43.222 9.72667 43.3906 10.042C43.5666 10.3573 43.794 10.5993 44.0726 10.768C44.3586 10.9293 44.6593 11.01 44.9746 11.01C45.2973 11.01 45.598 10.9293 45.8766 10.768C46.1553 10.6067 46.379 10.372 46.5476 10.064C46.7236 9.74867 46.8116 9.382 46.8116 8.964ZM52.2757 5.84C52.745 5.84 53.1594 5.93533 53.5187 6.126C53.8854 6.30933 54.1714 6.54033 54.3767 6.819V5.939H55.6417V12.099C55.6417 12.6563 55.5244 13.1513 55.2897 13.584C55.055 14.024 54.714 14.3687 54.2667 14.618C53.8267 14.8673 53.2987 14.992 52.6827 14.992C51.8614 14.992 51.1794 14.7977 50.6367 14.409C50.094 14.0277 49.786 13.507 49.7127 12.847H50.9557C51.051 13.1623 51.2527 13.4153 51.5607 13.606C51.876 13.804 52.25 13.903 52.6827 13.903C53.1887 13.903 53.5957 13.749 53.9037 13.441C54.219 13.133 54.3767 12.6857 54.3767 12.099V11.087C54.164 11.373 53.8744 11.615 53.5077 11.813C53.1484 12.0037 52.7377 12.099 52.2757 12.099C51.7477 12.099 51.2637 11.967 50.8237 11.703C50.391 11.4317 50.0464 11.0577 49.7897 10.581C49.5404 10.097 49.4157 9.55067 49.4157 8.942C49.4157 8.33333 49.5404 7.79433 49.7897 7.325C50.0464 6.85567 50.391 6.49267 50.8237 6.236C51.2637 5.972 51.7477 5.84 52.2757 5.84ZM54.3767 8.964C54.3767 8.546 54.2887 8.183 54.1127 7.875C53.944 7.567 53.7204 7.33233 53.4417 7.171C53.163 7.00967 52.8624 6.929 52.5397 6.929C52.217 6.929 51.9164 7.00967 51.6377 7.171C51.359 7.325 51.1317 7.556 50.9557 7.864C50.787 8.16467 50.7027 8.524 50.7027 8.942C50.7027 9.36 50.787 9.72667 50.9557 10.042C51.1317 10.3573 51.359 10.5993 51.6377 10.768C51.9237 10.9293 52.2244 11.01 52.5397 11.01C52.8624 11.01 53.163 10.9293 53.4417 10.768C53.7204 10.6067 53.944 10.372 54.1127 10.064C54.2887 9.74867 54.3767 9.382 54.3767 8.964ZM58.6528 3.86V12H57.3988V3.86H58.6528ZM65.9642 8.821C65.9642 9.04833 65.9495 9.25367 65.9202 9.437H61.2892C61.3258 9.921 61.5055 10.3097 61.8282 10.603C62.1508 10.8963 62.5468 11.043 63.0162 11.043C63.6908 11.043 64.1675 10.7607 64.4462 10.196H65.7992C65.6158 10.7533 65.2822 11.2117 64.7982 11.571C64.3215 11.923 63.7275 12.099 63.0162 12.099C62.4368 12.099 61.9162 11.9707 61.4542 11.714C60.9995 11.45 60.6402 11.0833 60.3762 10.614C60.1195 10.1373 59.9912 9.58733 59.9912 8.964C59.9912 8.34067 60.1158 7.79433 60.3652 7.325C60.6218 6.84833 60.9775 6.48167 61.4322 6.225C61.8942 5.96833 62.4222 5.84 63.0162 5.84C63.5882 5.84 64.0978 5.96467 64.5452 6.214C64.9925 6.46333 65.3408 6.81533 65.5902 7.27C65.8395 7.71733 65.9642 8.23433 65.9642 8.821ZM64.6552 8.425C64.6478 7.963 64.4828 7.59267 64.1602 7.314C63.8375 7.03533 63.4378 6.896 62.9612 6.896C62.5285 6.896 62.1582 7.03533 61.8502 7.314C61.5422 7.58533 61.3588 7.95567 61.3002 8.425H64.6552ZM72.4757 12.099C71.999 12.099 71.57 12.0147 71.1887 11.846C70.8147 11.67 70.5177 11.4353 70.2977 11.142C70.0777 10.8413 69.9603 10.5077 69.9457 10.141H71.2437C71.2657 10.3977 71.3867 10.614 71.6067 10.79C71.834 10.9587 72.1163 11.043 72.4537 11.043C72.8057 11.043 73.077 10.977 73.2677 10.845C73.4657 10.7057 73.5647 10.5297 73.5647 10.317C73.5647 10.0897 73.4547 9.921 73.2347 9.811C73.022 9.701 72.681 9.58 72.2117 9.448C71.757 9.32333 71.3867 9.20233 71.1007 9.085C70.8147 8.96767 70.5653 8.788 70.3527 8.546C70.1473 8.304 70.0447 7.985 70.0447 7.589C70.0447 7.26633 70.14 6.973 70.3307 6.709C70.5213 6.43767 70.7927 6.225 71.1447 6.071C71.504 5.917 71.9147 5.84 72.3767 5.84C73.066 5.84 73.6197 6.016 74.0377 6.368C74.463 6.71267 74.6903 7.18567 74.7197 7.787H73.4657C73.4437 7.51567 73.3337 7.29933 73.1357 7.138C72.9377 6.97667 72.67 6.896 72.3327 6.896C72.0027 6.896 71.7497 6.95833 71.5737 7.083C71.3977 7.20767 71.3097 7.37267 71.3097 7.578C71.3097 7.73933 71.3683 7.875 71.4857 7.985C71.603 8.095 71.746 8.183 71.9147 8.249C72.0833 8.30767 72.3327 8.38467 72.6627 8.48C73.1027 8.59733 73.462 8.71833 73.7407 8.843C74.0267 8.96033 74.2723 9.13633 74.4777 9.371C74.683 9.60567 74.7893 9.91733 74.7967 10.306C74.7967 10.6507 74.7013 10.9587 74.5107 11.23C74.32 11.5013 74.0487 11.714 73.6967 11.868C73.352 12.022 72.945 12.099 72.4757 12.099ZM76.8996 5.136C76.6723 5.136 76.4816 5.059 76.3276 4.905C76.1736 4.751 76.0966 4.56033 76.0966 4.333C76.0966 4.10567 76.1736 3.915 76.3276 3.761C76.4816 3.607 76.6723 3.53 76.8996 3.53C77.1196 3.53 77.3066 3.607 77.4606 3.761C77.6146 3.915 77.6916 4.10567 77.6916 4.333C77.6916 4.56033 77.6146 4.751 77.4606 4.905C77.3066 5.059 77.1196 5.136 76.8996 5.136ZM77.5156 5.939V12H76.2616V5.939H77.5156ZM78.854 8.942C78.854 8.33333 78.9787 7.79433 79.228 7.325C79.4847 6.85567 79.8294 6.49267 80.262 6.236C80.702 5.972 81.1897 5.84 81.725 5.84C82.121 5.84 82.5097 5.928 82.891 6.104C83.2797 6.27267 83.5877 6.5 83.815 6.786V3.86H85.08V12H83.815V11.087C83.6097 11.3803 83.3237 11.6223 82.957 11.813C82.5977 12.0037 82.1834 12.099 81.714 12.099C81.186 12.099 80.702 11.967 80.262 11.703C79.8294 11.4317 79.4847 11.0577 79.228 10.581C78.9787 10.097 78.854 9.55067 78.854 8.942ZM83.815 8.964C83.815 8.546 83.727 8.183 83.551 7.875C83.3824 7.567 83.1587 7.33233 82.88 7.171C82.6014 7.00967 82.3007 6.929 81.978 6.929C81.6554 6.929 81.3547 7.00967 81.076 7.171C80.7974 7.325 80.57 7.556 80.394 7.864C80.2254 8.16467 80.141 8.524 80.141 8.942C80.141 9.36 80.2254 9.72667 80.394 10.042C80.57 10.3573 80.7974 10.5993 81.076 10.768C81.362 10.9293 81.6627 11.01 81.978 11.01C82.3007 11.01 82.6014 10.9293 82.88 10.768C83.1587 10.6067 83.3824 10.372 83.551 10.064C83.727 9.74867 83.815 9.382 83.815 8.964ZM92.3921 8.821C92.3921 9.04833 92.3774 9.25367 92.3481 9.437H87.7171C87.7538 9.921 87.9334 10.3097 88.2561 10.603C88.5788 10.8963 88.9748 11.043 89.4441 11.043C90.1188 11.043 90.5954 10.7607 90.8741 10.196H92.2271C92.0438 10.7533 91.7101 11.2117 91.2261 11.571C90.7494 11.923 90.1554 12.099 89.4441 12.099C88.8648 12.099 88.3441 11.9707 87.8821 11.714C87.4274 11.45 87.0681 11.0833 86.8041 10.614C86.5474 10.1373 86.4191 9.58733 86.4191 8.964C86.4191 8.34067 86.5438 7.79433 86.7931 7.325C87.0498 6.84833 87.4054 6.48167 87.8601 6.225C88.3221 5.96833 88.8501 5.84 89.4441 5.84C90.0161 5.84 90.5258 5.96467 90.9731 6.214C91.4204 6.46333 91.7688 6.81533 92.0181 7.27C92.2674 7.71733 92.3921 8.23433 92.3921 8.821ZM91.0831 8.425C91.0758 7.963 90.9108 7.59267 90.5881 7.314C90.2654 7.03533 89.8658 6.896 89.3891 6.896C88.9564 6.896 88.5861 7.03533 88.2781 7.314C87.9701 7.58533 87.7868 7.95567 87.7281 8.425H91.0831ZM94.9902 6.841C95.2028 6.54767 95.4925 6.30933 95.8592 6.126C96.2332 5.93533 96.6475 5.84 97.1022 5.84C97.6375 5.84 98.1215 5.96833 98.5542 6.225C98.9868 6.48167 99.3278 6.84833 99.5772 7.325C99.8265 7.79433 99.9512 8.33333 99.9512 8.942C99.9512 9.55067 99.8265 10.097 99.5772 10.581C99.3278 11.0577 98.9832 11.4317 98.5432 11.703C98.1105 11.967 97.6302 12.099 97.1022 12.099C96.6328 12.099 96.2148 12.0073 95.8482 11.824C95.4888 11.6407 95.2028 11.406 94.9902 11.12V12H93.7362V3.86H94.9902V6.841ZM98.6752 8.942C98.6752 8.524 98.5872 8.16467 98.4112 7.864C98.2425 7.556 98.0152 7.325 97.7292 7.171C97.4505 7.00967 97.1498 6.929 96.8272 6.929C96.5118 6.929 96.2112 7.00967 95.9252 7.171C95.6465 7.33233 95.4192 7.567 95.2432 7.875C95.0745 8.183 94.9902 8.546 94.9902 8.964C94.9902 9.382 95.0745 9.74867 95.2432 10.064C95.4192 10.372 95.6465 10.6067 95.9252 10.768C96.2112 10.9293 96.5118 11.01 96.8272 11.01C97.1498 11.01 97.4505 10.9293 97.7292 10.768C98.0152 10.5993 98.2425 10.3573 98.4112 10.042C98.5872 9.72667 98.6752 9.36 98.6752 8.942ZM100.883 8.942C100.883 8.33333 101.008 7.79433 101.257 7.325C101.514 6.85567 101.859 6.49267 102.291 6.236C102.731 5.972 103.215 5.84 103.743 5.84C104.22 5.84 104.634 5.93533 104.986 6.126C105.346 6.30933 105.632 6.54033 105.844 6.819V5.939H107.109V12H105.844V11.098C105.632 11.384 105.342 11.6223 104.975 11.813C104.609 12.0037 104.191 12.099 103.721 12.099C103.201 12.099 102.724 11.967 102.291 11.703C101.859 11.4317 101.514 11.0577 101.257 10.581C101.008 10.097 100.883 9.55067 100.883 8.942ZM105.844 8.964C105.844 8.546 105.756 8.183 105.58 7.875C105.412 7.567 105.188 7.33233 104.909 7.171C104.631 7.00967 104.33 6.929 104.007 6.929C103.685 6.929 103.384 7.00967 103.105 7.171C102.827 7.325 102.599 7.556 102.423 7.864C102.255 8.16467 102.17 8.524 102.17 8.942C102.17 9.36 102.255 9.72667 102.423 10.042C102.599 10.3573 102.827 10.5993 103.105 10.768C103.391 10.9293 103.692 11.01 104.007 11.01C104.33 11.01 104.631 10.9293 104.909 10.768C105.188 10.6067 105.412 10.372 105.58 10.064C105.756 9.74867 105.844 9.382 105.844 8.964ZM110.12 6.819C110.304 6.511 110.546 6.27267 110.846 6.104C111.154 5.928 111.517 5.84 111.935 5.84V7.138H111.616C111.125 7.138 110.751 7.26267 110.494 7.512C110.245 7.76133 110.12 8.194 110.12 8.81V12H108.866V5.939H110.12V6.819Z" fill="#90A0B7"/>
<path fill-rule="evenodd" clip-rule="evenodd" d="M2 1C0.895431 1 0 1.89543 0 3V13C0 14.1046 0.89543 15 2 15H12C13.1046 15 14 14.1046 14 13V3C14 1.89543 13.1046 1 12 1H2ZM5 3C4.44772 3 4 3.44772 4 4V12C4 12.5523 4.44772 13 5 13C5.55228 13 6 12.5523 6 12V4C6 3.44772 5.55228 3 5 3Z" fill="#C2CFE0"/>
</svg>
